<svg width="625" height="150" viewBox="0 0 625 150" fill="none" xmlns="http://www.w3.org/2000/svg">
<g clip-path="url(#clip0_8_17)">
<path d="M369.25 39.8438L313 19.9219L256.75 39.8438V110.156L313 130.078L369.25 110.156V39.8438Z" fill="white"/>
<path d="M369.25 39.8438L313 19.9219L256.75 39.8438V110.156L313 130.078L369.25 110.156V39.8438ZM369.25 39.8438L313 19.9219Z" fill="white"/>
<path d="M313 133.594C312.648 133.594 312.18 133.477 311.828 133.359L255.578 113.438C254.172 112.969 253.234 111.563 253.234 110.156V39.8438C253.234 38.3203 254.172 37.0313 255.578 36.5625L311.828 16.6407C313.703 15.9375 315.695 16.9922 316.281 18.75C316.984 20.625 315.93 22.6172 314.172 23.2032L260.266 42.3047V107.695L314.172 126.797C316.047 127.5 316.984 129.492 316.281 131.25C315.812 132.656 314.406 133.594 313 133.594Z" fill="#C4C4C4"/>
<path d="M369.25 39.8438L313 19.9219L369.25 39.8438ZM369.25 39.8438L313 19.9219Z" fill="white"/>
<path d="M277.844 61.9922V49.3359C277.844 47.8125 278.781 46.5234 280.188 46.0547L334.094 26.9531L348.156 31.6406L293.078 50.7422C291.672 51.2109 290.734 52.6172 290.734 54.0234V65.7422C290.734 67.3828 289.094 68.5547 287.57 67.9688L280.188 65.2734C278.781 64.8047 277.844 63.5156 277.844 61.9922Z" fill="#FF3E00"/>
<path d="M372.766 39.6094C372.766 39.4922 372.766 39.375 372.766 39.1406C372.766 39.1406 372.766 39.1406 372.766 39.0234C372.766 38.9062 372.648 38.6719 372.648 38.5547C372.297 37.6172 371.477 36.7969 370.656 36.4453C370.656 36.4453 370.539 36.4453 370.539 36.3281L314.289 16.4063C314.289 16.4063 314.289 16.4063 314.172 16.4063C313.469 16.1719 312.648 16.1719 311.945 16.4063L255.695 36.3281C254.289 36.7969 253.352 38.2031 253.352 39.6094V109.922C253.352 111.445 254.289 112.734 255.695 113.203L311.945 133.125C312.297 133.242 312.766 133.359 313.117 133.359C313.469 133.359 313.937 133.242 314.289 133.125L370.539 113.203C371.945 112.734 372.883 111.328 372.883 109.922V39.8437C372.766 39.7266 372.766 39.7266 372.766 39.6094ZM260.266 42.3047L313 23.6719L358.703 39.8437L311.828 56.4844C311.828 56.4844 311.828 56.4844 311.711 56.4844C310.422 56.9531 309.484 58.2422 309.484 59.7656V125.156L260.266 107.695V42.3047ZM316.516 125.156V62.2266L365.734 44.7656V107.578L316.516 125.156Z" fill="#C4C4C4"/>
<path d="M110.34 28.7409C98.1523 11.2974 74.0819 6.12709 56.678 17.2157L26.1123 36.6966C21.9832 39.2943 18.4415 42.725 15.7136 46.7694C12.9858 50.8137 11.1318 55.3827 10.2702 60.1843C8.81213 68.2724 10.0937 76.6158 13.9119 83.8934C11.2955 87.8623 9.51108 92.3204 8.66635 96.9984C7.7956 101.897 7.91171 106.92 9.00789 111.773C10.1041 116.625 12.1582 121.211 15.0499 125.259C27.24 142.704 51.3104 147.872 68.7117 136.784L99.2774 117.303C103.407 114.706 106.949 111.275 109.677 107.231C112.404 103.186 114.258 98.6173 115.119 93.8156C116.577 85.7276 115.297 77.3844 111.48 70.1059C114.096 66.1371 115.88 61.6791 116.724 57.0015C117.595 52.1032 117.479 47.0801 116.383 42.2272C115.287 37.3742 113.232 32.7891 110.34 28.7409" fill="#FF3E00"/>
<path d="M53.6919 126.9C48.8818 128.151 43.8038 127.895 39.1436 126.168C34.4834 124.441 30.4656 121.325 27.6328 117.241C25.8935 114.806 24.6579 112.049 23.9986 109.131C23.3392 106.212 23.2693 103.192 23.793 100.246C23.9704 99.2787 24.2145 98.3249 24.5235 97.3915L25.0991 95.6362L26.6651 96.7864C30.2816 99.4437 34.3252 101.464 38.6217 102.76L39.7577 103.105L39.6531 104.239C39.5143 105.852 39.951 107.462 40.8859 108.784C41.7384 110.014 42.9479 110.952 44.351 111.473C45.7541 111.994 47.2832 112.072 48.7318 111.696C49.3961 111.518 50.0293 111.24 50.6093 110.87L81.1758 91.3918C81.9237 90.9209 82.5653 90.2993 83.0598 89.5667C83.5542 88.8341 83.8906 88.0065 84.0476 87.1368C84.2044 86.2488 84.1829 85.3386 83.9842 84.4591C83.7855 83.5796 83.4137 82.7485 82.8904 82.0143C82.0373 80.7839 80.8274 79.8448 79.4238 79.3238C78.0202 78.8027 76.4906 78.7248 75.0414 79.1005C74.378 79.2781 73.7456 79.5561 73.1664 79.925L61.5025 87.3605C59.5845 88.5799 57.4914 89.4991 55.2956 90.0861C50.4856 91.3368 45.4076 91.0811 40.7475 89.3537C36.0874 87.6263 32.0696 84.5104 29.2369 80.4267C27.4975 77.9923 26.2619 75.235 25.6025 72.3166C24.9431 69.3982 24.8733 66.3775 25.3971 63.4317C25.9151 60.5444 27.0301 57.7969 28.6706 55.3651C30.3112 52.9333 32.4412 50.8707 34.9245 49.3091L65.4883 29.8288C67.4071 28.6073 69.5017 27.687 71.6992 27.0998C76.5092 25.8492 81.5872 26.1049 86.2472 27.8323C90.9073 29.5597 94.9251 32.6755 97.7578 36.7591C99.4971 39.1936 100.733 41.951 101.392 44.8694C102.051 47.7878 102.121 50.8085 101.598 53.7543C101.419 54.7212 101.175 55.6749 100.867 56.6086L100.292 58.3638L98.7264 57.2154C95.1101 54.5566 91.0661 52.5353 86.7689 51.2388L85.6329 50.8941L85.7375 49.7603C85.8752 48.1475 85.4385 46.5379 84.5047 45.2157C83.6522 43.9857 82.4427 43.0468 81.0396 42.526C79.6365 42.0053 78.1074 41.9276 76.6588 42.3036C75.9945 42.4812 75.3614 42.7594 74.7813 43.1288L44.2148 62.6082C43.4671 63.0788 42.8256 63.7002 42.3315 64.4326C41.8374 65.1651 41.5015 65.9925 41.3453 66.8621C41.1875 67.75 41.2083 68.6604 41.4067 69.54C41.605 70.4197 41.9768 71.251 42.5003 71.9852C43.3533 73.2156 44.5633 74.1546 45.9668 74.6757C47.3704 75.1967 48.9 75.2747 50.3493 74.899C51.0134 74.7211 51.6465 74.4428 52.2266 74.0739L63.889 66.6412C65.8061 65.4201 67.8992 64.5002 70.0951 63.9134C74.9052 62.6627 79.9832 62.9184 84.6433 64.6458C89.3034 66.3732 93.3211 69.4891 96.1539 73.5728C97.8933 76.0072 99.1289 78.7645 99.7882 81.6829C100.448 84.6013 100.517 87.622 99.9937 90.5678C99.4753 93.4553 98.3602 96.2029 96.7197 98.635C95.0792 101.067 92.9494 103.13 90.4663 104.693L59.9024 124.171C57.9836 125.393 55.889 126.313 53.6915 126.9" fill="white"/>
<path fill-rule="evenodd" clip-rule="evenodd" d="M570.87 98.1203C563.267 98.1203 556.139 96.082 550.005 92.5219C545.402 95.1859 540.288 96.9687 534.919 97.7195C523.984 99.2488 512.89 96.3715 504.077 89.7211C499.709 86.4293 496.032 82.3094 493.257 77.5965C490.482 72.8836 488.663 67.6699 487.903 62.2535C487.144 56.8371 487.459 51.3242 488.831 46.0297C490.203 40.7352 492.605 35.7631 495.9 31.3973C499.194 27.0316 503.317 23.3578 508.032 20.5859C512.747 17.8141 517.962 15.9985 523.379 15.2429C528.796 14.4873 534.308 14.8066 539.602 16.1824C543.255 17.1321 546.755 18.5723 550.008 20.4577C556.142 16.8989 563.268 14.8611 570.87 14.8611C593.862 14.8611 612.5 33.499 612.5 56.4906C612.5 79.4824 593.862 98.1203 570.87 98.1203ZM543.037 25.5323L543.05 25.5214C537.269 22.9276 530.827 21.9821 524.452 22.8737C515.536 24.1205 507.48 28.8581 502.058 36.0442C496.635 43.2305 494.289 52.2762 495.536 61.1922C496.783 70.1078 501.52 78.1633 508.706 83.5859C515.892 89.0086 524.938 91.3547 533.854 90.1078C542.77 88.8609 550.825 84.1234 556.248 76.9375C561.671 69.7512 564.017 60.7055 562.77 51.7894C562.195 47.6762 560.877 43.7461 558.918 40.173C555.37 33.728 549.788 28.5597 543.037 25.5323ZM498.547 114.032C497.463 113.236 496.153 112.837 494.615 112.837C493.225 112.837 491.993 113.148 490.919 113.768C489.844 114.389 489.006 115.287 488.403 116.463C487.801 117.64 487.5 119.025 487.5 120.618C487.5 122.192 487.801 123.568 488.403 124.745C489.006 125.921 489.849 126.825 490.932 127.455C492.016 128.084 493.244 128.4 494.615 128.4C496.153 128.4 497.463 128.001 498.547 127.205C499.631 126.408 500.376 125.352 500.783 124.036V128.205H502.702V113.03H500.783V117.199C500.376 115.884 499.631 114.829 498.547 114.032ZM491.015 116.185C492.044 115.101 493.41 114.559 495.115 114.559C496.189 114.559 497.157 114.809 498.018 115.309C498.88 115.811 499.556 116.52 500.047 117.437C500.538 118.353 500.783 119.413 500.783 120.618C500.783 121.822 500.538 122.883 500.047 123.8C499.556 124.717 498.88 125.426 498.018 125.926C497.157 126.426 496.189 126.675 495.115 126.675C493.41 126.675 492.044 126.134 491.015 125.05C489.988 123.966 489.474 122.489 489.474 120.618C489.474 118.746 489.988 117.269 491.015 116.185ZM518.722 113.768C517.657 113.148 516.429 112.837 515.04 112.837C513.484 112.837 512.168 113.236 511.094 114.032C510.019 114.829 509.278 115.884 508.871 117.199V113.03H506.925V135.375H508.871V124.036C509.278 125.352 510.019 126.408 511.094 127.205C512.168 128.001 513.484 128.4 515.04 128.4C516.411 128.4 517.634 128.084 518.709 127.455C519.783 126.825 520.621 125.921 521.224 124.745C521.826 123.568 522.127 122.192 522.127 120.618C522.127 119.025 521.826 117.64 521.224 116.463C520.621 115.287 519.788 114.389 518.722 113.768ZM511.607 115.309C512.469 114.809 513.438 114.559 514.513 114.559C516.235 114.559 517.606 115.101 518.626 116.185C519.644 117.269 520.153 118.746 520.153 120.618C520.153 122.489 519.644 123.966 518.626 125.05C517.606 126.134 516.235 126.675 514.513 126.675C513.438 126.675 512.469 126.426 511.607 125.926C510.747 125.426 510.075 124.717 509.594 123.8C509.112 122.883 508.871 121.822 508.871 120.618C508.871 119.413 509.112 118.353 509.594 117.437C510.075 116.52 510.747 115.811 511.607 115.309ZM537.425 113.768C536.36 113.148 535.132 112.837 533.743 112.837C532.186 112.837 530.871 113.236 529.796 114.032C528.722 114.829 527.981 115.884 527.574 117.199V113.03H525.628V135.375H527.574V124.036C527.981 125.352 528.722 126.408 529.796 127.205C530.871 128.001 532.186 128.4 533.743 128.4C535.114 128.4 536.337 128.084 537.411 127.455C538.486 126.825 539.324 125.921 539.927 124.745C540.529 123.568 540.83 122.192 540.83 120.618C540.83 119.025 540.529 117.64 539.927 116.463C539.324 115.287 538.491 114.389 537.425 113.768ZM530.31 115.309C531.172 114.809 532.141 114.559 533.215 114.559C534.938 114.559 536.309 115.101 537.329 116.185C538.347 117.269 538.856 118.746 538.856 120.618C538.856 122.489 538.347 123.966 537.329 125.05C536.309 126.134 534.938 126.675 533.215 126.675C532.141 126.675 531.172 126.426 530.31 125.926C529.45 125.426 528.778 124.717 528.296 123.8C527.815 122.883 527.574 121.822 527.574 120.618C527.574 119.413 527.815 118.353 528.296 117.437C528.778 116.52 529.45 115.811 530.31 115.309ZM566.036 112.81H562.367L559.838 124.704L556.392 112.81H552.251L548.834 124.704L546.332 112.81H542.414L546.527 128.205H550.861L554.252 117.006L557.559 128.205H561.895L566.036 112.81ZM574.177 113.434C573.232 113.999 572.473 114.773 571.9 115.754V112.81H567.981V128.205H571.9V120.785C571.9 118.117 573.335 116.784 576.206 116.784H577.346V112.587C576.179 112.587 575.123 112.87 574.177 113.434ZM579.736 106.848C579.291 107.246 579.069 107.76 579.069 108.389C579.069 109.001 579.291 109.506 579.736 109.905C580.181 110.303 580.764 110.503 581.486 110.503C582.209 110.503 582.793 110.303 583.238 109.905C583.682 109.506 583.905 109.001 583.905 108.389C583.905 107.76 583.682 107.246 583.238 106.848C582.793 106.45 582.209 106.25 581.486 106.25C580.764 106.25 580.181 106.45 579.736 106.848ZM583.432 112.81H579.514V128.205H583.432V112.81ZM595.214 124.841H593.687C592.982 124.841 592.482 124.693 592.186 124.398C591.889 124.102 591.741 123.583 591.741 122.841V116.116H595.187V112.81H591.741V109.002H587.822V112.81H585.683V116.116H587.822V122.786C587.822 124.731 588.281 126.12 589.198 126.955C590.115 127.788 591.435 128.205 593.158 128.205H595.214V124.841ZM612.362 121.257C612.454 120.757 612.5 120.312 612.5 119.923C612.5 118.515 612.19 117.26 611.569 116.158C610.948 115.055 610.068 114.189 608.93 113.56C607.789 112.93 606.46 112.615 604.942 112.615C603.441 112.615 602.107 112.93 600.939 113.56C599.773 114.189 598.865 115.102 598.217 116.297C597.568 117.491 597.243 118.895 597.243 120.507C597.243 122.119 597.568 123.517 598.217 124.704C598.865 125.889 599.773 126.802 600.939 127.441C602.107 128.08 603.441 128.4 604.942 128.4C606.22 128.4 607.382 128.159 608.43 127.677C609.475 127.196 610.332 126.529 611 125.676C611.667 124.824 612.102 123.861 612.305 122.786H608.164C607.998 123.546 607.613 124.148 607.011 124.591C606.41 125.036 605.655 125.259 604.747 125.259C603.728 125.259 602.876 124.934 602.191 124.286C601.505 123.638 601.134 122.628 601.079 121.257H612.362ZM607.568 116.671C608.282 117.32 608.61 118.274 608.554 119.535H601.079C601.152 118.274 601.55 117.32 602.273 116.671C602.996 116.023 603.886 115.699 604.942 115.699C605.979 115.699 606.854 116.023 607.568 116.671Z" fill="#F02E65"/>
<path d="M530.268 42.0876C530.218 42.2106 529.582 44.7106 528.897 47.6758C528.185 50.6411 527.058 55.3215 526.422 58.0907C525.195 63.1633 524.46 66.4961 524.46 66.9375C524.46 67.059 525.22 67.1583 526.151 67.1583H527.843L528.601 63.7754C529.043 61.9379 530.024 57.7227 530.808 54.4145C531.592 51.1059 532.547 47.0872 532.916 45.4692C533.282 43.8516 533.65 42.3825 533.724 42.2106C533.798 41.9903 533.38 41.9172 532.107 41.9172C531.15 41.9172 530.316 41.9903 530.268 42.0876ZM517.108 52.6989L514.853 55.1501L515.516 55.9336C515.882 56.3743 516.888 57.4778 517.746 58.3848L519.314 60.0504H523.774L521.667 57.7711C520.514 56.5473 519.559 55.3704 519.559 55.2235C519.559 55.052 520.441 53.9497 521.52 52.7731C522.598 51.5731 523.48 50.5422 523.48 50.42C523.48 50.3219 522.549 50.2485 521.422 50.2485H519.388L517.108 52.6989ZM534.263 50.395C534.263 50.4696 534.679 50.9344 535.193 51.4493C537.106 53.3606 538.454 54.979 538.38 55.2965C538.331 55.4688 537.399 56.6196 536.273 57.8208L534.239 60.0504H536.518L538.797 60.0262L540.879 57.7477C542.032 56.4743 542.963 55.3454 542.963 55.1985C542.963 55.077 541.982 53.9247 540.757 52.6266L538.552 50.2485H536.419C535.218 50.2485 534.263 50.3219 534.263 50.395Z" fill="#F02E65"/>
<rect x="217" y="2" width="5" height="150" rx="2.5" transform="rotate(30 217 2)" fill="#C4C4C4"/>
<rect x="480" y="5" width="5" height="150" rx="2.5" transform="rotate(30 480 5)" fill="#C4C4C4"/>
</g>
<defs>
<clipPath id="clip0_8_17">
<rect width="625" height="150" fill="white"/>
</clipPath>
</defs>
</svg>
